<svg width="0" height="0" class="hidden">
<style>
:root svg:not(:target) {
  display: none;
}
   </style>
  <svg  xmlns="http://www.w3.org/2000/svg" viewBox="0 0 21 18" id="basket">
    <path d="M20.1884 6.85716H16.6377L13.1884 0.380944C12.9855 -8.61287e-06 12.5797 -0.0952351 12.1739 0.0952412C11.7681 0.285717 11.6667 0.66667 11.8696 1.04762L15.0145 6.85716H5.7826L8.92753 1.04762C9.13043 0.66667 8.92754 0.285717 8.6232 0.0952412C8.2174 -0.0952351 7.8116 0.0952295 7.6087 0.380944L4.1594 6.85716H0.811583C0.405785 6.85716 0 7.14286 0 7.61905C0 8 0.304336 8.38094 0.811583 8.38094H1.01449L1.92753 11.2381C1.72463 11.3333 1.62317 11.5238 1.62317 11.8095C1.62317 12.1905 1.92753 12.4762 2.33332 12.4762L4.05797 18H16.942L18.6667 12.4762C19.0725 12.4762 19.3768 12.1905 19.3768 11.8095C19.3768 11.619 19.2754 11.3333 19.0725 11.2381L19.9855 8.38094H20.1884C20.5942 8.38094 21 8.09524 21 7.61905C21 7.14286 20.5942 6.85716 20.1884 6.85716ZM15.6232 16.4762H5.07247L3.85506 12.381H16.942L15.6232 16.4762ZM17.2464 10.9524H3.34782L2.53623 8.28573H18.058L17.2464 10.9524Z"></path>
  </svg>
  <svg  xmlns="http://www.w3.org/2000/svg" viewBox="0 0 18 18" id="search">
    <path d="M17.6932 16.0568L14.2159 12.5795C15.2386 11.25 15.75 9.61364 15.75 7.875C15.75 3.47727 12.2727 0 7.875 0C3.47727 0 0 3.47727 0 7.875C0 12.2727 3.47727 15.75 7.875 15.75C9.61364 15.75 11.25 15.1364 12.5795 14.2159L16.0568 17.6932C16.2614 17.8977 16.4659 18 16.875 18C17.4886 18 18 17.4886 18 16.875C18 16.6705 17.8977 16.3636 17.6932 16.0568ZM2.25 7.875C2.25 4.80682 4.80682 2.25 7.875 2.25C10.9432 2.25 13.5 4.80682 13.5 7.875C13.5 10.9432 10.9432 13.5 7.875 13.5C4.80682 13.5 2.25 10.9432 2.25 7.875Z"></path>
  </svg>
  <svg width="40" height="62" viewBox="0 0 40 62" xmlns="http://www.w3.org/2000/svg" id="interior">
    <path d="M15.162 37.7167C14.8627 38.7119 14.9625 39.9061 15.162 41.2994C15.6607 43.8869 16.8577 47.2705 17.556 50.9527H22.6433C23.3415 47.3701 24.5385 43.9864 25.137 41.2994C25.4363 39.9061 25.4363 38.6124 25.137 37.7167C24.8378 36.821 24.2393 36.1244 23.142 35.4277H17.157C15.96 36.1244 15.3615 36.821 15.162 37.7167Z" />
    <path d="M26.9327 57.6211H13.1671C11.8703 57.6211 10.8728 58.6163 10.8728 59.8105V61.9999H13.1671H26.9327H29.2269V59.8105C29.2269 58.6163 28.2294 57.6211 26.9327 57.6211Z" />
    <path d="M34.015 2.18943H22.3441C22.3441 0.995194 21.3466 0 20.0499 0C18.7531 0 17.7556 0.995194 17.7556 2.18943H6.08478L0 27.5668C0.798005 27.0693 1.59602 26.5717 2.59352 26.5717C3.99003 26.5717 4.78803 27.3678 5.48629 27.9649C6.18454 28.562 6.68329 28.7611 6.88279 28.7611C7.18204 28.7611 7.68079 28.4625 8.37905 27.9649C9.0773 27.4673 9.97505 26.5717 11.2718 26.5717C12.5686 26.5717 13.4663 27.3678 14.1646 27.9649C14.8628 28.4625 15.3616 28.7611 15.6608 28.7611C15.7606 28.7611 15.9601 28.6616 16.2593 28.562C16.4588 28.4625 16.7581 28.164 17.1571 27.9649C17.6559 27.5668 18.2544 26.9697 19.1521 26.7707C19.4514 26.6712 19.7506 26.6712 20.0499 26.6712C21.3466 26.6712 22.2444 27.4673 22.9426 28.0644C23.6409 28.562 24.1397 28.8606 24.4389 28.8606C24.7382 28.8606 25.2369 28.562 25.8354 28.0644C26.5337 27.4673 27.4314 26.6712 28.7282 26.6712C30.1247 26.6712 30.9227 27.4673 31.621 28.0644C31.9202 28.363 32.2194 28.562 32.5187 28.6616C32.7182 28.7611 32.9177 28.8606 33.1172 28.8606C33.4165 28.8606 33.9152 28.562 34.5137 27.9649C35.212 27.3678 36.1097 26.5717 37.4065 26.5717C38.404 26.5717 39.202 27.0693 40 27.5668L34.015 2.18943Z" />
    <path d="M23.4415 53.1426H16.5587C15.8604 53.1426 15.4614 53.6402 15.4614 54.2373C15.4614 54.8344 15.9602 55.332 16.5587 55.332H23.4415C24.1397 55.332 24.5387 54.8344 24.5387 54.2373C24.6385 53.6402 24.1397 53.1426 23.4415 53.1426Z" />
    <path d="M20.0499 28.7598C19.9501 28.7598 19.7506 28.8593 19.4514 28.9588C19.2519 29.0583 19.0524 29.2574 18.8529 29.3569V33.0391H21.1471V29.4564C20.6484 29.0583 20.2494 28.7598 20.0499 28.7598Z" />
  </svg>
  <svg width="60" height="60" viewBox="0 0 60 60" xmlns="http://www.w3.org/2000/svg" id="toys">
    <path d="M0 43.9933L27.4 60V36.5436L0 20.4362V43.9933ZM51.3 12.4832V15C51.3 16.8121 47.8 18.3221 43.6 18.3221C39.3 18.3221 35.9 16.8121 35.9 15V10.8725C36.2 12.5839 39.5 13.9933 43.6 13.9933C47.9 13.9933 51.3 12.4832 51.3 10.6711C51.3 8.85907 47.8 7.349 43.6 7.349C43.3 7.349 42.9 7.349 42.6 7.349L37.6 4.42954V7.55034C37.6 9.36242 34.1 10.8725 29.9 10.8725C27.2 10.8725 24.9 10.2685 23.5 9.36242C23.3 9.16108 23.1 8.95973 22.8 8.75839C22.4 8.3557 22.2 7.95302 22.2 7.55034V4.5302L17.4 7.349C17.1 7.349 16.7 7.349 16.3 7.349C12 7.349 8.60001 8.85907 8.60001 10.6711C8.60001 12.4832 12.1 13.9933 16.3 13.9933C20.4 13.9933 23.7 12.5839 24 10.8725V15C24 16.8121 20.5 18.3221 16.3 18.3221C12 18.3221 8.60001 16.8121 8.60001 15V12.5839L2.60001 16.1074L30.1 32.2148L57.5 16.2081L51.3 12.4832ZM37.7 22.7517C37.7 24.5638 34.2 26.0738 30 26.0738C25.7 26.0738 22.3 24.5638 22.3 22.7517V18.6242C22.6 20.3356 25.9 21.745 30 21.745C34.1 21.745 37.4 20.3356 37.7 18.6242V22.7517ZM32.6 36.745V60L60 43.9933V20.7383L32.6 36.745ZM29.9 6.6443C34.2 6.6443 37.6 5.13423 37.6 3.32215C37.6 1.51007 34.1 0 29.9 0C25.6 0 22.2 1.51007 22.2 3.32215C22.2 5.13423 25.6 6.6443 29.9 6.6443Z" />
  </svg>
  <svg width="50" height="26" viewBox="0 0 50 26" xmlns="http://www.w3.org/2000/svg" id="prev">
    <path d="M50 11H7.7L15.8 2.8L13 0L0 13L13 26L15.8 23.2L7.7 15H50V11Z" />
  </svg>
  <svg width="50" height="26" viewBox="0 0 50 26" xmlns="http://www.w3.org/2000/svg" id="next">
    <path d="M0 11H42.3L34.2 2.8L37 0L50 13L37 26L34.2 23.2L42.3 15H0V11Z" />
  </svg>
  <svg width="102" height="34" viewBox="0 0 102 34" xmlns="http://www.w3.org/2000/svg" id="footerLogo">
    <path d="M19.2204 21.3813C19.1204 18.6962 18.7204 16.1105 18.7204 13.4255C18.7204 11.2376 19.1204 9.04976 18.3204 6.96135C18.3204 6.76246 18.4204 6.46411 18.4204 6.26522C18.6204 5.27074 15.1204 5.76798 14.6204 6.76246C14.3204 7.0608 14.1204 7.35914 14.2204 7.75694C14.2204 7.85638 14.3204 7.95583 14.3204 8.05528C13.6204 11.2376 12.7204 14.3205 11.7204 17.4034C11.3204 18.5967 10.8204 19.6907 10.4204 20.884C9.82041 19.7901 9.22041 18.6962 8.82041 17.5028C7.42041 14.1216 6.22041 10.6409 4.52041 7.35914C4.72041 5.86743 1.32041 5.96688 0.620408 7.35914C-0.179592 9.04976 -0.0795918 10.7404 0.220408 12.5304C0.520408 14.5194 0.620408 16.5083 0.620408 18.5967C0.620408 22.5746 1.02041 26.4531 1.02041 30.431C0.620408 30.8288 0.520408 31.326 0.920408 31.8233C1.12041 32.0222 1.32041 32.2211 1.52041 32.3205C2.52041 33.0167 5.12041 32.42 5.12041 31.0277C5.12041 26.9503 4.82041 22.873 4.72041 18.6962C4.72041 18.2984 4.72041 17.9006 4.72041 17.5028C4.82041 17.6023 4.82041 17.8012 4.92041 17.9006C5.52041 19.4918 6.22041 21.0829 7.12041 22.5746C8.02041 24.0664 8.42041 25.6575 8.92041 27.2487C8.72041 27.4476 8.62041 27.7459 8.72041 27.9448C8.72041 28.1437 8.82041 28.2432 9.02041 28.3426C9.62041 28.8399 10.8204 28.641 11.5204 28.3426C11.8204 28.2432 12.1204 28.0443 12.3204 27.9448C12.6204 27.7459 13.2204 27.2487 13.0204 26.7514C13.0204 26.652 12.9204 26.5526 12.9204 26.4531C13.4204 25.1603 13.6204 23.8675 13.9204 22.5746C14.2204 21.1824 14.7204 19.7901 15.2204 18.4973C15.3204 19.094 15.3204 19.6907 15.4204 20.3868C15.6204 22.9724 15.4204 25.4586 15.4204 27.9448C15.4204 28.7404 15.5204 29.536 15.6204 30.431C15.7204 30.7294 16.0204 32.2211 15.9204 32.3205C15.1204 32.8178 15.3204 33.4144 16.1204 33.6133C17.0204 33.8122 18.2204 33.5139 18.9204 32.9172C20.1204 31.8233 19.5204 30.1327 19.3204 28.7404C18.8204 26.3537 19.3204 23.768 19.2204 21.3813Z" />
    <path d="M27.6201 22.0776C27.5201 20.0887 26.8201 18.1992 26.8201 16.2102C26.8201 13.9229 27.0201 11.6356 26.6201 9.34833C26.5201 8.65219 22.5201 9.44778 22.7201 10.3428C23.0201 12.4312 22.9201 14.5196 22.9201 16.7075C22.9201 18.6964 23.4201 20.5859 23.6201 22.5749C23.9201 24.6633 23.5201 26.7517 23.7201 28.7406C23.8201 29.7351 24.5201 31.4257 23.8201 32.3208C23.4201 32.818 25.3201 32.6191 25.4201 32.6191C26.2201 32.5196 27.2201 32.2213 27.7201 31.6246C28.4201 30.829 27.9201 29.2379 27.8201 28.2434C27.5201 26.2544 27.7201 24.0666 27.6201 22.0776Z" />
    <path d="M43.9205 18.7956C41.8205 16.0111 38.0205 18.0001 35.3205 17.3039C33.9205 16.9061 33.9205 15.0166 33.9205 13.9227C33.9205 12.5304 33.8205 11.2376 33.6205 9.84534C33.5205 8.75142 33.6205 7.75694 34.3205 6.96136C34.4205 6.86191 35.2205 6.66302 35.1205 6.66302C35.5205 6.56357 35.8205 6.56357 36.2205 6.56357C37.7205 6.46412 40.8205 6.76247 40.2205 9.04976C39.9205 10.0442 43.8205 9.44755 44.1205 8.45308C45.3205 3.87848 36.8205 4.77351 34.4205 5.3702C32.2205 5.96688 29.8205 7.16026 29.6205 9.7459C29.5205 10.9393 29.9205 12.1326 29.9205 13.326C30.0205 14.7183 29.7205 16.1106 30.2205 17.4034C31.3205 20.3868 35.7205 18.9945 38.0205 19.094C41.8205 19.3923 40.7205 24.5636 40.7205 26.9504C40.7205 28.2432 41.9205 30.3316 40.9205 31.4255C40.3205 32.1216 38.9205 32.1216 38.1205 32.2211C37.3205 32.3205 35.9205 32.5194 35.4205 31.7238C34.4205 30.3316 35.5205 27.9448 35.3205 26.3537C35.2205 25.4586 31.2205 26.2542 31.4205 27.3481C31.7205 29.9338 30.0205 33.4145 33.8205 33.9117C36.2205 34.21 39.0205 33.7128 41.3205 33.0167C42.5205 32.6189 43.6205 32.1216 44.5205 31.2266C45.5205 30.3316 45.2205 28.9393 44.9205 27.7459C44.4205 24.6631 45.8205 21.2818 43.9205 18.7956Z" />
    <path d="M61.3201 18.5966C61.2201 14.8176 60.6201 11.1381 60.6201 7.35905C60.6201 5.37009 56.6201 6.06623 56.6201 7.65739C56.6201 11.2375 57.1201 14.8176 57.3201 18.3977C57.3201 18.4972 57.3201 18.4972 57.3201 18.5966C55.4201 18.5966 53.4201 18.7955 51.4201 18.7955C51.6201 14.2209 50.8201 9.64634 51.0201 4.9723C51.0201 4.37561 47.1201 4.87285 47.1201 5.96678C46.9201 10.4419 47.7201 14.8176 47.6201 19.2928C47.5201 21.3812 47.4201 23.569 47.3201 25.6574C47.3201 26.7514 47.5201 27.8453 47.6201 28.9392C47.7201 29.9337 48.1201 31.2265 47.8201 32.221C47.6201 33.0166 51.4201 32.5193 51.7201 31.5248C52.2201 29.7348 51.5201 27.5469 51.3201 25.7569C51.1201 24.0663 51.3201 22.2762 51.4201 20.5856C53.4201 20.4861 55.5201 20.2873 57.5201 20.5856C57.6201 21.9779 57.7201 23.3701 57.8201 24.663C57.9201 25.8563 58.0201 26.9502 58.0201 28.1436C58.0201 29.1381 58.1201 30.6298 57.8201 31.6243C57.0201 33.7127 60.9201 33.5138 61.5201 32.0221C62.2201 30.1326 62.0201 27.8453 61.9201 25.8563C61.7201 23.3701 61.3201 20.9834 61.3201 18.5966Z" />
    <path d="M78.22 22.9729C77.32 20.1884 75.82 17.8016 74.62 15.216C75.62 13.3265 76.62 11.3375 77.52 9.34855C78.32 7.55849 78.92 5.56954 80.62 4.27672C81.22 3.87892 81.22 3.38169 80.32 3.28224C79.42 3.18279 78.22 3.48113 77.52 3.97837C76.12 5.27119 75.12 6.66346 74.42 8.35407C73.52 10.4425 72.52 12.4314 71.52 14.4204C71.42 14.5198 71.42 14.7187 71.32 14.8182C70.82 15.1165 70.52 15.6138 70.72 16.111C69.92 17.7022 69.12 19.1939 68.22 20.6856C67.92 15.216 67.22 9.64689 67.02 4.17727C67.02 2.88445 63.02 3.68003 63.12 5.17174C63.32 12.0336 64.32 18.7961 64.42 25.658C64.42 25.658 64.42 25.658 64.42 25.7574C64.12 26.0558 64.22 26.2547 64.52 26.3541C64.52 28.1442 64.42 29.8348 64.32 31.6248C63.82 32.321 64.82 32.7188 65.42 32.7188H65.52C66.22 32.7188 68.12 32.4204 68.22 31.3265C68.42 29.2381 68.52 27.1497 68.42 25.0613C70.02 23.3707 71.32 21.4812 72.52 19.4922C73.32 20.9839 74.02 22.4756 74.52 24.0668C75.42 26.7519 76.82 29.3375 77.62 32.0226C78.12 33.8127 82.12 32.7188 81.52 31.0282C80.52 28.2436 79.12 25.7574 78.22 22.9729Z" />
    <path d="M101.721 18.3983C101.521 17.6027 100.321 17.6027 99.4207 17.6027C99.4207 17.3043 99.4207 16.9066 99.4207 16.6082C99.3207 13.9231 99.2207 11.238 99.0207 8.6524C98.8207 6.1662 97.4207 5.37062 95.0207 5.47007C92.6207 5.56952 89.8207 5.96731 87.5207 6.86234C84.9207 7.85682 83.4207 9.74632 82.9207 12.5309C82.4207 15.5143 83.1207 18.6966 83.3207 21.68C83.5207 25.1607 83.4207 28.6414 83.4207 32.1221C83.4207 32.7187 87.3207 32.1221 87.3207 31.1276C87.3207 28.343 87.3207 25.5585 87.3207 22.8734C87.3207 22.0778 87.2207 21.2823 87.2207 20.4867C88.6207 19.89 90.9207 20.4867 92.3207 20.5861C93.4207 20.6856 94.5207 20.3872 95.5207 20.2878C95.5207 22.5751 95.6207 24.8624 95.7207 27.1497C95.7207 28.343 96.2207 30.6303 95.3207 31.6248C94.9207 32.1221 96.8207 31.9232 96.9207 31.9232C97.7207 31.8237 98.7207 31.5254 99.2207 30.9287C100.121 29.8348 99.7207 27.1497 99.6207 25.8569C99.5207 23.9673 99.5207 22.0778 99.5207 20.1883C100.621 19.9894 101.921 19.2933 101.721 18.3983ZM87.1207 18.2988C87.0207 17.1055 86.9207 15.8126 86.8207 14.6193C86.6207 12.332 86.9207 9.05019 89.1207 7.65792C89.7207 7.26013 90.8207 7.35958 91.5207 7.26013C92.5207 7.06123 93.5207 6.86234 94.3207 7.45902C95.5207 8.25461 95.2207 11.1386 95.2207 12.332C95.2207 14.3209 95.4207 16.3099 95.5207 18.2988C94.9207 18.3983 94.4207 18.3983 93.8207 18.3983C91.5207 18.1994 89.2207 17.8016 87.1207 18.2988Z" />
    <path d="M24.2204 6.663C24.7204 6.56355 25.2204 6.4641 25.7204 6.16576C25.8204 6.06631 25.9204 5.96686 25.9204 5.96686C26.4204 5.66852 26.9204 5.17128 26.6204 4.57459C26.1204 3.48067 26.2204 2.38675 26.2204 1.19337C26.2204 0.198895 25.2204 0 24.4204 0C23.7204 0.0994477 22.2204 0.596686 22.2204 1.49172C22.2204 2.48619 22.1204 3.48067 22.3204 4.47515C22.3204 4.57459 22.2204 4.67404 22.2204 4.87294C22.1204 5.07183 22.2204 5.27073 22.3204 5.46962V5.56907C22.3204 5.66852 22.3204 5.76797 22.3204 5.86742C22.4204 6.06631 22.5204 6.26521 22.7204 6.36465C23.3204 6.663 23.8204 6.663 24.2204 6.663Z" />
  </svg>
  <svg width="27" height="18" viewBox="0 0 27 18" xmlns="http://www.w3.org/2000/svg" id="vk">
    <path d="M0 2.83876C0 1.98373 0.515103 1.52268 1.54531 1.45562L5.51515 1.48077C5.78158 1.48077 5.95921 1.60651 6.04802 1.85799C6.45655 3.11538 6.91392 4.20094 7.42014 5.11465C7.92637 6.02835 8.58801 7.08038 9.40507 8.27071C9.47611 8.4216 9.59157 8.49704 9.75143 8.49704C9.87576 8.49704 9.97345 8.43836 10.0445 8.32101L10.1244 8.04438L10.1511 3.69379C10.1511 3.39201 10.0756 3.19083 9.92461 3.09024C9.77363 2.98965 9.49388 2.9142 9.08535 2.86391C8.76563 2.81361 8.60577 2.62919 8.60577 2.31065C8.60577 2.24359 8.61465 2.19329 8.63241 2.15976C9.00542 1.07002 10.0711 0.525148 11.8296 0.525148L13.3216 0.5C13.9966 0.5 14.5561 0.65927 15.0001 0.977811C15.4442 1.29635 15.6662 1.79931 15.6662 2.48669V8.19527C15.7906 8.27909 15.906 8.32101 16.0126 8.32101C16.279 8.32101 16.5099 8.17012 16.7053 7.86834C18.6592 5.28649 19.716 3.55966 19.8759 2.68787C19.8759 2.6711 19.8936 2.62919 19.9291 2.56213C20.0535 2.31065 20.2577 2.0927 20.5419 1.90828C20.8261 1.72387 21.0748 1.59813 21.288 1.53107C21.359 1.49753 21.4389 1.48077 21.5277 1.48077H25.6574L25.9239 1.50592C26.2791 1.50592 26.5544 1.66519 26.7498 1.98373C26.8209 2.08432 26.8697 2.19329 26.8964 2.31065C26.923 2.42801 26.9408 2.54536 26.9496 2.66272C26.9585 2.78008 26.963 2.84714 26.963 2.86391V3.03994C26.8386 3.72732 26.5233 4.4608 26.0171 5.24038C25.5109 6.01997 24.867 6.86243 24.0855 7.76775C23.304 8.67308 22.8155 9.26825 22.6201 9.55326C22.4603 9.75444 22.3803 9.93886 22.3803 10.1065C22.3803 10.2406 22.4514 10.3915 22.5935 10.5592L26.4834 15.1864C26.6965 15.4546 26.8031 15.748 26.8031 16.0666C26.8031 16.4522 26.6432 16.7707 26.3235 17.0222C26.0038 17.2737 25.6219 17.4162 25.1779 17.4497L24.7249 17.4749H20.6752C20.6574 17.4749 20.6219 17.479 20.5686 17.4874C20.5153 17.4958 20.4798 17.5 20.462 17.5C20.0712 17.5 19.7071 17.3407 19.3696 17.0222C19.2453 16.8881 18.4105 15.8989 16.8652 14.0547C16.7764 13.9374 16.652 13.8284 16.4922 13.7278C16.4211 13.9961 16.3279 14.3817 16.2124 14.8846C16.097 15.3876 16.0126 15.748 15.9593 15.966L15.8794 16.3935C15.7018 16.9803 15.3287 17.3323 14.7604 17.4497L14.3874 17.4749H11.7763C10.3021 17.4749 8.83224 16.8378 7.36686 15.5636C5.90148 14.2894 4.58264 12.6423 3.41034 10.622C2.23803 8.60182 1.14566 6.25049 0.133216 3.56805C0.0444054 3.3501 0 3.107 0 2.83876ZM16.0126 9.35207C15.6396 9.35207 15.3021 9.25567 15.0001 9.06287C14.6982 8.87007 14.5472 8.60602 14.5472 8.27071V2.48669C14.5472 2.15138 14.4584 1.91248 14.2808 1.76997C14.1032 1.62747 13.7923 1.55621 13.3483 1.55621L11.8296 1.60651C11.0658 1.60651 10.4886 1.73225 10.0978 1.98373C10.8793 2.3358 11.2701 2.90582 11.2701 3.69379V8.11982C11.2346 8.53895 11.0569 8.88683 10.7372 9.16346C10.4175 9.44009 10.0623 9.5784 9.6715 9.5784C9.13863 9.5784 8.7301 9.33531 8.44591 8.84911C7.06046 6.87081 6.03025 4.9931 5.35529 3.21598L5.1155 2.56213L1.57195 2.53698C1.34104 2.53698 1.21227 2.54956 1.18562 2.5747C1.15898 2.59985 1.14566 2.6711 1.14566 2.78846C1.14566 2.93935 1.16342 3.09862 1.19895 3.26627L1.75845 4.67456C3.25048 8.31262 4.87127 11.1795 6.62085 13.2751C8.37042 15.3708 10.0889 16.4186 11.7763 16.4186H14.4406C14.5472 16.4186 14.6271 16.3893 14.6804 16.3306C14.7337 16.2719 14.7781 16.1588 14.8136 15.9911L14.8669 15.7396L15.3732 13.5266C15.5152 13.2249 15.6396 13.0237 15.7462 12.9231C15.9415 12.7387 16.1725 12.6465 16.4389 12.6465C16.8652 12.6465 17.3003 12.8895 17.7444 13.3757L20.0091 16.0917C20.1512 16.3097 20.3022 16.4186 20.462 16.4186H24.8581C25.391 16.4186 25.6574 16.2929 25.6574 16.0414C25.6574 15.9576 25.6308 15.8738 25.5775 15.7899L21.7142 11.2382C21.4123 10.8861 21.2613 10.5089 21.2613 10.1065C21.2613 9.70414 21.4034 9.31854 21.6876 8.9497C21.9185 8.6144 22.367 8.05695 23.0331 7.27737C23.6992 6.49778 24.2809 5.76849 24.7782 5.0895C25.2756 4.4105 25.6042 3.79438 25.764 3.24112L25.8439 2.9142C25.8262 2.88067 25.8173 2.82618 25.8173 2.75074C25.8173 2.6753 25.8084 2.61243 25.7907 2.56213H21.6077C21.3412 2.66272 21.1281 2.81361 20.9682 3.01479L20.8084 3.4926C20.3643 4.64941 19.2009 6.43491 17.3181 8.84911C16.9451 9.18442 16.5099 9.35207 16.0126 9.35207Z" />
  </svg>
  <svg width="24" height="20" viewBox="0 0 24 20" xmlns="http://www.w3.org/2000/svg" id="youtube">
    <path d="M15.8509 9.29275L10.6145 5.80184C10.5159 5.73691 10.4016 5.69985 10.2837 5.69459C10.1657 5.68934 10.0486 5.71608 9.94459 5.77198C9.84061 5.82789 9.75368 5.91087 9.69302 6.01215C9.63236 6.11343 9.60022 6.22924 9.6 6.34729V13.3291C9.60013 13.4481 9.6327 13.5648 9.69421 13.6667C9.75572 13.7686 9.84384 13.8518 9.94909 13.9073C10.0524 13.9631 10.1691 13.9895 10.2864 13.9837C10.4037 13.978 10.5172 13.9402 10.6145 13.8746L15.8509 10.3837C15.9409 10.3239 16.0148 10.2429 16.0658 10.1477C16.1169 10.0526 16.1436 9.94621 16.1436 9.8382C16.1436 9.73019 16.1169 9.62385 16.0658 9.52868C16.0148 9.43351 15.9409 9.35245 15.8509 9.29275ZM10.9091 12.1073V7.56911L14.3127 9.8382L10.9091 12.1073ZM23.3891 3.54366C23.2942 3.17547 23.1131 2.83511 22.8609 2.55061C22.6086 2.26611 22.2924 2.04561 21.9382 1.90729C18.2182 0.478201 12.2509 0.500019 12 0.500019C11.7491 0.500019 5.78182 0.478201 2.06182 1.90729C1.70764 2.04561 1.3914 2.26611 1.13914 2.55061C0.886889 2.83511 0.705838 3.17547 0.610909 3.54366C0.327273 4.61275 0 6.57638 0 9.8382C0 13.1 0.327273 15.0637 0.610909 16.1327C0.705838 16.5009 0.886889 16.8413 1.13914 17.1258C1.3914 17.4103 1.70764 17.6308 2.06182 17.7691C5.78182 19.1982 11.7491 19.1764 12 19.1764H12.0764C12.8291 19.1764 18.3927 19.1327 21.9382 17.7691C22.2924 17.6308 22.6086 17.4103 22.8609 17.1258C23.1131 16.8413 23.2942 16.5009 23.3891 16.1327C23.6727 15.0637 24 13.1 24 9.8382C24 6.57638 23.6727 4.61275 23.3891 3.54366ZM22.1236 15.8055C22.0807 15.972 21.999 16.1259 21.8853 16.2548C21.7715 16.3838 21.6289 16.484 21.4691 16.5473C17.9782 17.8891 12.0655 17.8673 12 17.8673C11.9345 17.8673 6.02182 17.8891 2.53091 16.5473C2.37107 16.484 2.22846 16.3838 2.11471 16.2548C2.00096 16.1259 1.91929 15.972 1.87636 15.8055C1.61455 14.8018 1.30909 12.9582 1.30909 9.8382C1.30909 6.7182 1.61455 4.87457 1.87636 3.87093C1.91929 3.70445 2.00096 3.55047 2.11471 3.42156C2.22846 3.29264 2.37107 3.19243 2.53091 3.12911C6.02182 1.78729 11.9345 1.80911 12 1.80911C12.0655 1.80911 17.9782 1.78729 21.4691 3.12911C21.6289 3.19243 21.7715 3.29264 21.8853 3.42156C21.999 3.55047 22.0807 3.70445 22.1236 3.87093C22.3855 4.87457 22.6909 6.7182 22.6909 9.8382C22.6909 12.9582 22.3855 14.8018 22.1236 15.8055Z" />
  </svg>
  <svg width="20" height="18" viewBox="0 0 20 18" xmlns="http://www.w3.org/2000/svg" id="telegram">
    <path fill-rule="evenodd" clip-rule="evenodd" d="M19.4608 0.652905C19.6393 0.802216 19.7255 1.0349 19.6872 1.26448L17.0611 17.0214C17.0244 17.2411 16.8789 17.4273 16.6745 17.5159C16.47 17.6045 16.2346 17.5833 16.0493 17.4597L8.17082 12.2074C8.01771 12.1054 7.91447 11.9437 7.88624 11.7619C7.858 11.58 7.90738 11.3947 8.02233 11.251L10.633 7.98773L6.27303 10.8944C6.077 11.025 5.82597 11.0407 5.61524 10.9353L0.362931 8.30915C0.127693 8.19153 -0.0146529 7.94488 0.00119976 7.68235C0.0170525 7.41983 0.188044 7.1921 0.435726 7.10364L18.8188 0.538258C19.038 0.459976 19.2822 0.503595 19.4608 0.652905ZM2.32626 7.82275L5.86168 9.59046L13.4231 4.5495C13.6925 4.36994 14.0525 4.41349 14.2712 4.6521C14.49 4.8907 14.5022 5.25314 14.3 5.50591L9.49502 11.5121L15.9328 15.8039L18.2083 2.15058L2.32626 7.82275Z" />
  </svg>
  <svg width="27" height="35" viewBox="0 0 27 35" xmlns="http://www.w3.org/2000/svg" id="htmlAcademy">
    <path d="M13.6 0H13.5L0 1.4V26.1L13.5 34.1L26.9 26.1V1.4L13.6 0ZM25 12.1L13.5 5.3V5.2H13.4L13.3 5.1V5.2L1.9 12.1V3.1L13.4 1.9L25 3.1V12.1ZM13.4 6.8L24.9 13.5L20.4 16.1L13.3 11.9V13.3L19.2 16.8L18.3 17.3L13.3 14.3V15.7L17.1 18L16.3 18.5L13.3 16.7V18.1L15.2 19.2L13.4 20.3L2 13.6L13.4 6.8ZM1.9 15.1L13.3 21.9V22.9L5.4 18.2V19.6L13.4 24.4V25.5L5.4 20.8V22.2L13.4 27L21.5 22.1V16.9L24.9 14.9V24.9L13.4 31.8L1.9 25V15.1Z"/>
  </svg>
  <svg width="25" height="24" viewBox="0 0 25 24" xmlns="http://www.w3.org/2000/svg" id="phone">
    <path d="M17.4395 24C17.0363 24 16.7339 24 16.3306 24C11.3911 23.4074 7.7621 21.1358 5.14113 18.2717C2.52016 15.4075 0.403226 11.7532 0 6.7162C0 6.22237 0 5.82731 0 5.33349C0.100806 4.44461 0.504032 3.85202 1.10887 3.25943C1.71371 2.56808 2.72177 1.77796 3.62903 1.6792C4.33468 1.6792 5.44355 2.17302 5.84677 2.76561C6.25 3.25943 6.45161 4.34584 6.65323 5.13596C6.85484 6.02484 7.25806 7.11125 7.15726 7.90137C6.95565 9.08655 5.34274 9.58037 4.93952 10.4693C6.55242 14.1235 9.07258 16.889 12.5 18.6667C13.3065 18.1729 14.1129 16.7902 15.3226 16.7902C15.7258 16.7902 16.3306 16.9877 16.7339 17.0865C17.2379 17.1852 17.6411 17.3828 18.0444 17.5803C18.75 17.8766 20.0605 18.1729 20.4637 18.7655C20.8669 19.3581 21.1694 20.3457 21.0685 20.9383C20.7661 22.2222 18.6492 23.6049 17.4395 24Z" />
    <path d="M12.6008 1.48147C18.5484 1.48147 23.4879 6.22217 23.4879 12.1481H25C25 5.43205 19.4556 0 12.6008 0V1.48147Z" />
    <path d="M12.6008 9.18506V10.7653C13.4073 10.7653 14.0121 11.3579 14.0121 12.148H15.625C15.625 10.5678 14.3145 9.18506 12.6008 9.18506Z" />
    <path d="M12.6008 6.12356C15.9274 6.12356 18.75 8.79021 18.75 12.1482H20.3629C20.3629 8.00009 16.9355 4.64209 12.7016 4.64209V6.12356H12.6008Z" />
  </svg>
  <svg width="32" height="21" viewBox="0 0 32 21" xmlns="http://www.w3.org/2000/svg" id="mail">
    <path d="M28 0H4C1.8 0 0 1.8 0 4V17C0 19.2 1.8 21 4 21H28C30.2 21 32 19.2 32 17V4C32 1.8 30.2 0 28 0ZM2 5.3L9 10.6L2 15.9V5.3ZM30 17C30 18.1 29.1 19 28 19H4C2.9 19 2 18.1 2 17L9.8 11.1L14.2 14.4C14.7 14.8 15.4 15 16 15C16.6 15 17.3 14.8 17.8 14.4L22.2 11.1L30 17ZM30 15.8L23 10.5L30 5.2V15.8ZM17.2 13.6C16.8 13.9 16.4 14 16 14C15.6 14 15.1 13.9 14.8 13.6L10.7 10.5L9.9 9.9L2 4C2 2.9 2.9 2 4 2H28C29.1 2 30 2.9 30 4L17.2 13.6Z"/>
  </svg>
</svg>
